name rise35.5848peak51.9257fall54.8793.mot
datacolumns 19
datarows 23
range 10.77495300000000 10.81161800000000
endheader
time	ground_force1_vx	ground_force1_vy	ground_force1_vz	ground_force1_px	ground_force1_py	ground_force1_pz	ground_force2_vx	ground_force2_vy	ground_force2_vz	ground_force2_px	ground_force2_py	ground_force2_pz	ground_torque1_x	ground_torque1_y	ground_torque1_z	ground_torque2_x	ground_torque2_y	ground_torque2_z	
10.77495300000000	-4.92683600000000	45.37537400000000	-8.45811800000000	0.31837300000000	0.00000000000000	0.08887800000000	-35.15978000000000	797.65040399999998	-63.44937800000000	0.12731100000000	0.00000000000000	-0.11656500000000	0.00000000000000	-5.23470900000000	0.00000000000000	0.00000000000000	-23.56959000000000	0.00000000000000	
10.77661900000000	-5.27864100000000	51.91538500000000	-9.26561900000000	0.32144100000000	0.00000000000000	0.08972400000000	-35.85650300000000	795.29117499999995	-63.10404300000000	0.12645300000000	0.00000000000000	-0.11643200000000	0.00000000000000	-5.77609200000000	0.00000000000000	0.00000000000000	-23.53411900000000	0.00000000000000	
10.77828400000000	-5.52840600000000	58.40466000000000	-9.95698400000000	0.32436000000000	0.00000000000000	0.09050200000000	-36.56855500000000	792.79370100000006	-62.73424700000000	0.12560500000000	0.00000000000000	-0.11629500000000	0.00000000000000	-6.25390800000000	0.00000000000000	0.00000000000000	-23.49958500000000	0.00000000000000	
10.77995200000000	-5.66679200000000	64.77924400000001	-10.51909500000000	0.32714300000000	0.00000000000000	0.09122200000000	-37.29546800000000	790.15575799999999	-62.34007800000000	0.12476600000000	0.00000000000000	-0.11615300000000	0.00000000000000	-6.65943700000000	0.00000000000000	0.00000000000000	-23.46599400000000	0.00000000000000	
10.78162000000000	-5.68924700000000	70.99985300000000	-10.94589000000000	0.32980200000000	0.00000000000000	0.09189100000000	-38.03669000000000	787.37511600000005	-61.92165100000000	0.12393800000000	0.00000000000000	-0.11600700000000	0.00000000000000	-6.98825400000000	0.00000000000000	0.00000000000000	-23.43333300000000	0.00000000000000	
10.78328800000000	-5.59562500000000	77.05138200000000	-11.23782900000000	0.33234600000000	0.00000000000000	0.09251500000000	-38.79158700000000	784.44954099999995	-61.47911200000000	0.12312100000000	0.00000000000000	-0.11585700000000	0.00000000000000	-7.23997200000000	0.00000000000000	0.00000000000000	-23.40157000000000	0.00000000000000	
10.78495300000000	-5.38952400000000	82.94049300000000	-11.40091500000000	0.33478100000000	0.00000000000000	0.09310000000000	-39.55943800000000	781.37680100000000	-61.01263700000000	0.12231400000000	0.00000000000000	-0.11570300000000	0.00000000000000	-7.41769500000000	0.00000000000000	0.00000000000000	-23.37065500000000	0.00000000000000	
10.78662100000000	-5.07743400000000	88.69183800000000	-11.44542500000000	0.33711300000000	0.00000000000000	0.09365200000000	-40.33943900000000	778.15466800000002	-60.52243200000000	0.12151800000000	0.00000000000000	-0.11554400000000	0.00000000000000	-7.52728000000000	0.00000000000000	0.00000000000000	-23.34051400000000	0.00000000000000	
10.78828300000000	-4.66780600000000	94.34346300000000	-11.38451600000000	0.33934800000000	0.00000000000000	0.09417200000000	-41.13069700000000	774.78092000000004	-60.00873400000000	0.12073400000000	0.00000000000000	-0.11538100000000	0.00000000000000	-7.57649000000000	0.00000000000000	0.00000000000000	-23.31105600000000	0.00000000000000	
10.78995400000000	-4.17013300000000	99.94190399999999	-11.23283100000000	0.34148700000000	0.00000000000000	0.09466600000000	-41.93223200000000	771.25335099999995	-59.47180700000000	0.11996100000000	0.00000000000000	-0.11521400000000	0.00000000000000	-7.57414100000000	0.00000000000000	0.00000000000000	-23.28216700000000	0.00000000000000	
10.79161800000000	-3.59411300000000	105.53744700000000	-11.00523100000000	0.34353500000000	0.00000000000000	0.09513600000000	-42.74297900000000	767.56976999999995	-58.91194600000000	0.11919900000000	0.00000000000000	-0.11504300000000	0.00000000000000	-7.52930300000000	0.00000000000000	0.00000000000000	-23.25371500000000	0.00000000000000	
10.79330100000000	-2.94895000000000	111.17988300000000	-10.71572300000000	0.34549500000000	0.00000000000000	0.09558500000000	-43.56178500000000	763.72801600000003	-58.32947500000000	0.11844700000000	0.00000000000000	-0.11486800000000	0.00000000000000	-7.45061100000000	0.00000000000000	0.00000000000000	-23.22554500000000	0.00000000000000	
10.79495600000000	-2.24281500000000	116.91502000000000	-10.37663900000000	0.34736700000000	0.00000000000000	0.09601400000000	-44.38741200000000	759.72595500000000	-57.72474600000000	0.11770700000000	0.00000000000000	-0.11468800000000	0.00000000000000	-7.34573400000000	0.00000000000000	0.00000000000000	-23.19748300000000	0.00000000000000	
10.79661800000000	-1.48249700000000	122.78207600000000	-9.99808300000000	0.34915300000000	0.00000000000000	0.09642500000000	-45.21853400000000	755.56149600000003	-57.09814100000000	0.11697700000000	0.00000000000000	-0.11450500000000	0.00000000000000	-7.22099600000000	0.00000000000000	0.00000000000000	-23.16933600000000	0.00000000000000	
10.79829800000000	-0.67322100000000	128.81201200000001	-9.58765000000000	0.35085600000000	0.00000000000000	0.09682100000000	-46.05374500000000	751.23259700000006	-56.45007000000000	0.11625800000000	0.00000000000000	-0.11431700000000	0.00000000000000	-7.08117500000000	0.00000000000000	0.00000000000000	-23.14088900000000	0.00000000000000	
10.79995700000000	0.18137100000000	135.02674400000001	-9.15037300000000	0.35247600000000	0.00000000000000	0.09720200000000	-46.89155400000000	746.73727199999996	-55.78097200000000	0.11554900000000	0.00000000000000	-0.11412600000000	0.00000000000000	-6.92945100000000	0.00000000000000	0.00000000000000	-23.11190900000000	0.00000000000000	
10.80162300000000	1.07911400000000	141.43915000000001	-8.68888200000000	0.35401400000000	0.00000000000000	0.09756900000000	-47.73039100000000	742.07360600000004	-55.09131300000000	0.11484900000000	0.00000000000000	-0.11393100000000	0.00000000000000	-6.76747500000000	0.00000000000000	0.00000000000000	-23.08214600000000	0.00000000000000	
10.80331100000000	2.01911000000000	148.05371099999999	-8.20370400000000	0.35547100000000	0.00000000000000	0.09792500000000	-48.56860700000000	737.23976500000003	-54.38158800000000	0.11415900000000	0.00000000000000	-0.11373300000000	0.00000000000000	-6.59555800000000	0.00000000000000	0.00000000000000	-23.05133000000000	0.00000000000000	
10.80495300000000	3.00145400000000	154.86763700000000	-7.69367700000000	0.35684800000000	0.00000000000000	0.09826900000000	-49.40448000000000	732.23400700000002	-53.65232000000000	0.11347700000000	0.00000000000000	-0.11353100000000	0.00000000000000	-6.41290800000000	0.00000000000000	0.00000000000000	-23.01917400000000	0.00000000000000	
10.80661900000000	4.02693200000000	161.87228700000000	-7.15640500000000	0.35814600000000	0.00000000000000	0.09860300000000	-50.23621400000000	727.05469900000003	-52.90405600000000	0.11280400000000	0.00000000000000	-0.11332500000000	0.00000000000000	-6.21792600000000	0.00000000000000	0.00000000000000	-22.98537700000000	0.00000000000000	
10.80829200000000	5.09671000000000	169.05473699999999	-6.58872700000000	0.35936500000000	0.00000000000000	0.09892700000000	-51.06194500000000	721.70032700000002	-52.13737300000000	0.11213800000000	0.00000000000000	-0.11311700000000	0.00000000000000	-6.00849400000000	0.00000000000000	0.00000000000000	-22.94962200000000	0.00000000000000	
10.80995600000000	6.21204700000000	176.39934000000000	-5.98716100000000	0.36050500000000	0.00000000000000	0.09924200000000	-51.87974500000000	716.16951300000005	-51.35287300000000	0.11148000000000	0.00000000000000	-0.11290500000000	0.00000000000000	-5.78226600000000	0.00000000000000	0.00000000000000	-22.91157700000000	0.00000000000000	
10.81161800000000	7.37404000000000	183.88917400000000	-5.34828800000000	0.36156900000000	0.00000000000000	0.09954800000000	-52.68762500000000	710.46102800000006	-50.55118300000000	0.11082700000000	0.00000000000000	-0.11268900000000	0.00000000000000	-5.53691300000000	0.00000000000000	0.00000000000000	-22.87089800000000	0.00000000000000	
